<?xml version="1.0" encoding="UTF-8" standalone="no"?><svg xmlns="http://www.w3.org/2000/svg" xmlns:xlink="http://www.w3.org/1999/xlink" contentScriptType="application/ecmascript" contentStyleType="text/css" height="287px" preserveAspectRatio="none" style="width:243px;height:287px;" version="1.1" viewBox="0 0 243 287" width="243px" zoomAndPan="magnify"><defs><filter height="300%" id="f1eqmtmzmg45si" width="300%" x="-1" y="-1"><feGaussianBlur result="blurOut" stdDeviation="2.0"/><feColorMatrix in="blurOut" result="blurOut2" type="matrix" values="0 0 0 0 0 0 0 0 0 0 0 0 0 0 0 0 0 0 .4 0"/><feOffset dx="4.0" dy="4.0" in="blurOut2" result="blurOut3"/><feBlend in="SourceGraphic" in2="blurOut3" mode="normal"/></filter></defs><g><!--class Catagory--><rect fill="#FEFECE" filter="url(#f1eqmtmzmg45si)" height="69.9727" id="Catagory" style="stroke: #A80036; stroke-width: 1.5;" width="144" x="37.5" y="185"/><ellipse cx="77.7" cy="201" fill="#ADD1B2" rx="11" ry="11" style="stroke: #A80036; stroke-width: 1.0;"/><path d="M80.0438,196.6719 L80.2156,196.75 C80.4344,196.4375 80.6375,196.3438 80.9344,196.3438 C81.2313,196.3438 81.5125,196.4844 81.6688,196.75 C81.7625,196.9063 81.7781,197.0313 81.7781,197.4688 L81.7781,198.8906 C81.7781,199.3125 81.7469,199.5 81.6375,199.6563 C81.4656,199.875 81.2,200.0156 80.9344,200.0156 C80.7156,200.0156 80.4813,199.9063 80.3406,199.7656 C80.2,199.6406 80.1688,199.5156 80.1063,199.1094 C80.0125,198.7031 79.8406,198.4844 79.3563,198.2031 C78.8875,197.9531 78.2781,197.7969 77.7,197.7969 C75.9656,197.7969 74.7156,199.1094 74.7156,200.8906 L74.7156,201.9844 C74.7156,203.6875 76.0125,204.7813 78.0594,204.7813 C78.825,204.7813 79.5125,204.6563 79.9344,204.3906 C80.1219,204.2969 80.1219,204.2969 80.575,203.8125 C80.7625,203.625 80.9656,203.5469 81.1844,203.5469 C81.6531,203.5469 82.0438,203.9375 82.0438,204.3906 C82.0438,204.7813 81.7156,205.2344 81.1375,205.6406 C80.3875,206.1875 79.2313,206.4844 78.0125,206.4844 C75.1219,206.4844 73.0125,204.5938 73.0125,202.0156 L73.0125,200.8906 C73.0125,198.1719 75.0125,196.0938 77.6375,196.0938 C78.5125,196.0938 79.1063,196.2344 80.0438,196.6719 Z "/><text fill="#000000" font-family="Courier" font-size="12" lengthAdjust="spacingAndGlyphs" textLength="56" x="97.3" y="206.2711">Catagory</text><line style="stroke: #A80036; stroke-width: 1.5;" x1="38.5" x2="180.5" y1="217" y2="217"/><text fill="#000000" font-family="Courier" font-size="11" lengthAdjust="spacingAndGlyphs" textLength="123" x="43.5" y="231.3217">INTEGER      ★ id</text><text fill="#000000" font-family="Courier" font-size="11" lengthAdjust="spacingAndGlyphs" textLength="132" x="43.5" y="242.308">VARCHAR[100] ⚪ name</text><line style="stroke: #A80036; stroke-width: 1.5;" x1="38.5" x2="180.5" y1="246.9727" y2="246.9727"/><!--class CatItem--><rect fill="#FEFECE" filter="url(#f1eqmtmzmg45si)" height="102.9316" id="CatItem" style="stroke: #A80036; stroke-width: 1.5;" width="207" x="6" y="8"/><ellipse cx="80.75" cy="24" fill="#ADD1B2" rx="11" ry="11" style="stroke: #A80036; stroke-width: 1.0;"/><path d="M83.0938,19.6719 L83.2656,19.75 C83.4844,19.4375 83.6875,19.3438 83.9844,19.3438 C84.2813,19.3438 84.5625,19.4844 84.7188,19.75 C84.8125,19.9063 84.8281,20.0313 84.8281,20.4688 L84.8281,21.8906 C84.8281,22.3125 84.7969,22.5 84.6875,22.6563 C84.5156,22.875 84.25,23.0156 83.9844,23.0156 C83.7656,23.0156 83.5313,22.9063 83.3906,22.7656 C83.25,22.6406 83.2188,22.5156 83.1563,22.1094 C83.0625,21.7031 82.8906,21.4844 82.4063,21.2031 C81.9375,20.9531 81.3281,20.7969 80.75,20.7969 C79.0156,20.7969 77.7656,22.1094 77.7656,23.8906 L77.7656,24.9844 C77.7656,26.6875 79.0625,27.7813 81.1094,27.7813 C81.875,27.7813 82.5625,27.6563 82.9844,27.3906 C83.1719,27.2969 83.1719,27.2969 83.625,26.8125 C83.8125,26.625 84.0156,26.5469 84.2344,26.5469 C84.7031,26.5469 85.0938,26.9375 85.0938,27.3906 C85.0938,27.7813 84.7656,28.2344 84.1875,28.6406 C83.4375,29.1875 82.2813,29.4844 81.0625,29.4844 C78.1719,29.4844 76.0625,27.5938 76.0625,25.0156 L76.0625,23.8906 C76.0625,21.1719 78.0625,19.0938 80.6875,19.0938 C81.5625,19.0938 82.1563,19.2344 83.0938,19.6719 Z "/><text fill="#000000" font-family="Courier" font-size="12" lengthAdjust="spacingAndGlyphs" textLength="49" x="101.25" y="29.2711">CatItem</text><line style="stroke: #A80036; stroke-width: 1.5;" x1="7" x2="212" y1="40" y2="40"/><text fill="#000000" font-family="Courier" font-size="11" lengthAdjust="spacingAndGlyphs" textLength="123" x="26" y="54.3217">INTEGER      ★ id</text><text fill="#000000" font-family="Courier" font-size="11" lengthAdjust="spacingAndGlyphs" textLength="151" x="26" y="65.308">INTEGER      ☆ cat_id</text><text fill="#000000" font-family="Courier" font-size="11" lengthAdjust="spacingAndGlyphs" textLength="181" x="26" y="76.2943">VARCHAR[550] ⚪ description</text><text fill="#000000" font-family="Courier" font-size="11" lengthAdjust="spacingAndGlyphs" textLength="139" x="26" y="87.2806">VARCHAR[100] ⚪ title</text><ellipse cx="17" cy="94.9453" fill="none" rx="3" ry="3" style="stroke: #038048; stroke-width: 1.0;"/><text fill="#000000" font-family="Courier" font-size="11" lengthAdjust="spacingAndGlyphs" textLength="56" x="26" y="98.2738">catagory</text><line style="stroke: #A80036; stroke-width: 1.5;" x1="7" x2="212" y1="102.9316" y2="102.9316"/><!--link CatItem to Catagory--><path d="M109.5,124.115 C109.5,140.02 109.5,156.7991 109.5,171.7518 " fill="none" id="CatItem-Catagory" style="stroke: #A80036; stroke-width: 1.0;"/><polygon fill="#FFFFFF" points="109.5,184.8928,113.5,178.8928,109.5,172.8928,105.5,178.8928,109.5,184.8928" style="stroke: #A80036; stroke-width: 1.0;"/><polygon fill="#A80036" points="109.5,111.086,105.5,120.086,109.5,116.086,113.5,120.086,109.5,111.086" style="stroke: #A80036; stroke-width: 1.0;"/><line style="stroke: #A80036; stroke-width: 1.0;" x1="109.5" x2="109.5001" y1="116.086" y2="124.086"/><text fill="#000000" font-family="Courier" font-size="13" lengthAdjust="spacingAndGlyphs" textLength="48" x="110.5" y="154.1996">cat_id</text><text fill="#888888" font-family="Courier" font-size="10" lengthAdjust="spacingAndGlyphs" textLength="174" x="57" y="274.3898">generated by sadisplay v0.4.9</text><!--
@startuml
skinparam defaultFontName Courier

Class Catagory {
    INTEGER      ★ id  
    VARCHAR[100] ⚪ name
}

Class CatItem {
    INTEGER      ★ id         
    INTEGER      ☆ cat_id     
    VARCHAR[550] ⚪ description
    VARCHAR[100] ⚪ title      
    +            catagory     
}

CatItem <- -o Catagory: cat_id

right footer generated by sadisplay v0.4.9
@enduml

PlantUML version 1.2019.03beta10(Unknown compile time)
(GPL source distribution)
Java Runtime: Java(TM) SE Runtime Environment
JVM: Java HotSpot(TM) 64-Bit Server VM
Java Version: 1.7.0_25-b15
Operating System: Linux
Default Encoding: UTF-8
Language: en
Country: US
--></g></svg>